<?xml version="1.0" encoding="UTF-8"?>
<svg version="1.1" viewBox="0 0 2048 794" width="1280" height="1280" xmlns="http://www.w3.org/2000/svg">
<path transform="translate(0)" d="m0 0h2048v794h-2048z" fill="#FEFEFE"/>
<path transform="translate(32,207)" d="m0 0h57v388l1 45 428 1v56l-1 2h-484l-1-1z" fill="#E956AD"/>
<path transform="translate(1554,61)" d="m0 0h451l1 2v65l-1 391h-51l-1-1-1-310v-93h-386l-12-1z" fill="#E956AD"/>
<path transform="translate(711,223)" d="m0 0h115l15 3 18 6 13 7 11 9 7 8 8 14 5 15 2 12v25l-5 20-7 14-8 10-11 10-14 8-7 2 13 29 17 37 16 35 8 18 1 6-3 1h-54l-5-8-16-34-15-33-14-30-5-10v-2l-7 1h-23l-1 115-2 1h-44l-8-1-1-37v-132l94-1 16-1 12-3 8-5 6-8 2-6 1-12-2-9-6-9-6-5-9-4-13-2-100-1-2-1-1-51z" fill="#E956AD"/>
<path transform="translate(605,223)" d="m0 0h54v289h-37l-17-1-1-53h-108l-1 53-16 1h-35l-3-1-1-3v-105h165z" fill="#E956AD"/>
<path transform="translate(1205,223)" d="m0 0h22l15 3 16 6 14 9 10 9 8 10 8 16 4 13 2 18-5 2h-41l-7-1-2-6-3-10-8-9-10-5-5-1h-17l-11 4-9 8-4 8-2 13 2 10 4 8 8 7 7 3 20 3 17 3 18 6 13 7 10 8 7 7 9 14 6 14 4 17v18l-4 19-7 16-7 10-12 12-14 9-15 6-17 4-14 1-1-1v-51l17-5 10-6 6-9 2-5 1-9-2-10-6-10-9-7-10-4-23-3-21-6-14-6-14-10-10-10-8-13-5-13-3-15v-15l3-18 6-16 9-14 9-10 14-10 15-7 17-5z" fill="#E956AD"/>
<path transform="translate(292,223)" d="m0 0h23l14 3 12 4 15 8 14 12 10 14 6 13 4 14 2 15-5 3h-43l-6-2-4-14-6-8-8-5-9-3-11-1-10 2-10 5-5 4-5 8-2 8v11l4 11 4 6 8 5 9 3 29 4 17 5 16 8 13 10 8 9 8 14 5 12 3 13 1 6v14l-4 19-7 16-9 13-8 8-13 9-15 7-14 4-15 2h-6v-52l7-2 12-4 8-6 6-8 2-6v-14l-4-9-7-8-8-5-7-3-23-3-19-5-16-7-13-9-11-11-9-14-5-15-2-10v-20l3-17 6-15 7-11 11-12 12-9 16-8 13-4z" fill="#E956AD"/>
<path transform="translate(1604,222)" d="m0 0h28l7 1 7 8 8 12 10 14 13 18 14 20 13 18 5 5 10-14 13-18 6-8h68l-7 11-11 15-24 34-13 18-13 19-1 2-1 133-1 1-34 1-19-1-1-1-1-105-1-30-11-16-10-14-13-18-12-17-13-18-12-17-26-36-8-14 1-2z" fill="#E956AD"/>
<path transform="translate(992,223)" d="m0 0h55l1 239h31l1 1v47l-3 2h-106l-11-1-1-1-1-9v-29l1-10h32z" fill="#E957AE"/>
<path transform="translate(1413,328)" d="m0 0h54l1 5v140l-1 38h-53l-1-12z" fill="#E956AD"/>
<path transform="translate(1354,223)" d="m0 0h172l1 1v48l-1 1h-170l-2-1-1-23v-25z" fill="#E957AE"/>
<path transform="translate(441,223)" d="m0 0h53l1 1v124l-2 1h-50l-3-1v-124z" fill="#E956AD"/>
<path transform="translate(33,208)" d="m0 0h1l2 49v366l2 56 4 10 2 6h-9v3h-2z" fill="#E938A3"/>
<path transform="translate(1953,122)" d="m0 0h1l2 86v167l1 72 1 41v9l4 16 4 1v2h18l10-1h9l1-3v6h-51z" fill="#E939A3"/>
<path transform="translate(649,508)" d="m0 0h9v3h-35l1-2z" fill="#E938A3"/>
<path transform="translate(1455,505)" d="m0 0h9l2 1v5h-7l-2-1v-2h-2z" fill="#E938A3"/>
</svg>
